# xmcd CD database file
#
# Track frame offsets:
#	150
#	18675
#	38770
#	59073
#	77740
#	93408
#	110230
#	125830
#	155048
#	170738
#
# Disc length: 2502 seconds
#
# Revision: 0
# Processed by: cddbd v1.5.1PL0 Copyright (c) Steve Scherf et al.
# Submitted via: CDex 1.51
#
DISCID=9209c40a
DTITLE=Cayito - Mas Romantico
DYEAR=1999
DGENRE=Salsa
TTITLE0=Que te pedi
TTITLE1=Venganza
TTITLE2=La Comparsa
TTITLE3=Si no eres tu
TTITLE4=Siempre junto a ti
TTITLE5=Seguire sin ti
TTITLE6=Juventud
TTITLE7=Este terco corazon/Las hojas muertas
TTITLE8=Paty
TTITLE9=No encuentro palabras
EXTD=YEAR: 1999
EXTT0=
EXTT1=
EXTT2=
EXTT3=
EXTT4=
EXTT5=
EXTT6=
EXTT7=
EXTT8=
EXTT9=
PLAYORDER=
